<svg xmlns="http://www.w3.org/2000/svg" viewBox="0 0 512 512" style="enable-background:new 0 0 512 512" xml:space="preserve"><path style="fill:#cddcf9" d="M501.037 261v120.019H385.023l5.996-30.002V140.982z"/><path style="fill:#fff" d="M391.019 351.017H281.002v-50.013h.12c16.505 0 29.883-13.377 29.883-29.883v-50.253c0-16.495-13.377-29.883-29.883-29.883h-.12V90.978H391.02l-.001 260.039z"/><path style="fill:#fff" d="M391.019 65.967v25.012H281.002V65.967c0-30.381 24.623-55.004 55.014-55.004 30.364 0 55.003 24.62 55.003 55.004zm0 285.05-10.001 50.004h-90.016l-10.001-50.004h110.018z"/><path style="fill:#fff" d="M354.085 407.176c15.902 31.777 8.486 70.244-18.069 93.861-26.556-23.607-33.967-62.086-18.079-93.861l3.078-6.156h30.002l3.068 6.156z"/><path style="fill:#cddcf9" d="M311.004 220.868v50.253c0 16.505-13.377 29.883-29.883 29.883h-50.243c-16.505 0-29.883-13.377-29.883-29.883v-50.253c0-16.495 13.377-29.883 29.883-29.883h50.243c16.505 0 29.883 13.388 29.883 29.883z"/><path style="fill:#fff" d="M230.998 301.003v50.013H120.981V90.978h110.018v100.007h-.12c-16.505 0-29.883 13.387-29.883 29.883v50.253c0 16.505 13.377 29.883 29.883 29.883h.119z"/><path style="fill:#fff" d="M230.998 65.967v25.012H120.981V65.967c0-30.381 24.623-55.004 55.004-55.004 15.2 0 28.946 6.166 38.897 16.117s16.116 23.696 16.116 38.887zm0 285.05-10.001 50.004h-90.016l-10.001-50.004h110.018z"/><path style="fill:#fff" d="M194.063 407.176c15.876 31.78 8.489 70.245-18.079 93.861-26.546-23.607-33.967-62.086-18.069-93.861l3.068-6.156h30.002l3.078 6.156z"/><path style="fill:#cddcf9" d="m120.981 351.017 5.996 30.002H10.963V261l110.018-120.018z"/><path style="fill:#487fe9" d="M230.997 360.975H120.98c-5.501 0-9.961-4.46-9.961-9.961V65.971c0-35.824 29.145-64.969 64.969-64.969 35.902 0 64.969 29.06 64.969 64.969V190.99c0 5.501-4.46 9.961-9.961 9.961s-9.961-4.46-9.961-9.961V65.971c0-24.892-20.149-45.048-45.048-45.048-24.839 0-45.048 20.209-45.048 45.048v275.082h90.095v-40.047c0-5.501 4.46-9.961 9.961-9.961s9.961 4.46 9.961 9.961v50.008c.002 5.501-4.458 9.961-9.959 9.961z"/><path style="fill:#487fe9" d="M220.995 410.983h-90.014a9.96 9.96 0 0 1-9.767-8.008l-10.002-50.008c-1.079-5.394 2.419-10.642 7.814-11.721 5.386-1.079 10.643 2.419 11.721 7.814l8.401 42h73.681l8.401-42c1.078-5.395 6.327-8.895 11.721-7.814 5.395 1.079 8.893 6.327 7.814 11.721l-10.002 50.008a9.962 9.962 0 0 1-9.768 8.008z"/><path style="fill:#487fe9" d="M169.371 508.482c-29.859-26.541-38.236-70.033-20.369-105.765l3.075-6.149a9.961 9.961 0 0 1 8.909-5.507h30.004a9.958 9.958 0 0 1 8.909 5.507l3.075 6.15c17.866 35.731 9.491 79.223-20.368 105.764a9.96 9.96 0 0 1-13.235 0zm-2.229-97.499-.322.643c-12.42 24.839-8.475 54.516 9.168 75.212 17.644-20.696 21.587-50.373 9.167-75.211l-.322-.644h-17.691zm63.855-310.048H120.98c-5.501 0-9.961-4.46-9.961-9.961s4.46-9.961 9.961-9.961h110.017c5.501 0 9.961 4.46 9.961 9.961s-4.46 9.961-9.961 9.961zm160.023 260.04H281.003c-5.501 0-9.961-4.46-9.961-9.961v-50.008c0-5.501 4.46-9.961 9.961-9.961s9.961 4.46 9.961 9.961v40.047h90.095V65.971c0-24.894-20.147-45.048-45.048-45.048-24.839 0-45.048 20.209-45.048 45.048V190.99c0 5.501-4.46 9.961-9.961 9.961s-9.961-4.46-9.961-9.961V65.971c0-35.824 29.145-64.969 64.969-64.969 35.904 0 64.969 29.058 64.969 64.969v285.043c.002 5.501-4.458 9.961-9.959 9.961z"/><path style="fill:#487fe9" d="M381.019 410.983h-90.014a9.96 9.96 0 0 1-9.767-8.008l-10.002-50.008c-1.079-5.394 2.419-10.642 7.814-11.721 5.384-1.079 10.642 2.419 11.721 7.814l8.401 42h73.681l8.401-42c1.078-5.395 6.325-8.895 11.721-7.814 5.395 1.079 8.893 6.327 7.814 11.721l-10.002 50.008a9.963 9.963 0 0 1-9.768 8.008z"/><path style="fill:#487fe9" d="M329.394 508.482c-29.859-26.541-38.235-70.033-20.368-105.765l3.075-6.149a9.961 9.961 0 0 1 8.909-5.507h30.004a9.958 9.958 0 0 1 8.909 5.507l3.075 6.15c17.866 35.731 9.49 79.223-20.369 105.764a9.96 9.96 0 0 1-13.235 0zm-2.227-97.499-.322.643c-12.42 24.839-8.476 54.516 9.167 75.212 17.644-20.696 21.588-50.373 9.168-75.211l-.322-.644h-17.691zm63.853-310.048H281.003c-5.501 0-9.961-4.46-9.961-9.961s4.46-9.961 9.961-9.961H391.02c5.501 0 9.961 4.46 9.961 9.961s-4.46 9.961-9.961 9.961zM281.126 310.968h-50.252c-21.969 0-39.843-17.874-39.843-39.843v-50.252c0-21.969 17.874-39.843 39.843-39.843h50.252c21.969 0 39.843 17.874 39.843 39.843v50.252c0 21.968-17.874 39.843-39.843 39.843zm-50.252-110.017c-10.985 0-19.922 8.937-19.922 19.922v50.252c0 10.985 8.937 19.922 19.922 19.922h50.252c10.985 0 19.922-8.937 19.922-19.922v-50.252c0-10.985-8.937-19.922-19.922-19.922h-50.252zm50.129-50.008h-50.007c-5.501 0-9.961-4.46-9.961-9.961s4.46-9.961 9.961-9.961h50.007c5.501 0 9.961 4.46 9.961 9.961s-4.46 9.961-9.961 9.961zm220.034 240.036H385.019c-5.501 0-9.961-4.46-9.961-9.961s4.46-9.961 9.961-9.961h106.057V264.875L383.678 147.713c-3.718-4.054-3.443-10.356.612-14.073 4.054-3.72 10.357-3.444 14.073.612L508.379 254.27a9.955 9.955 0 0 1 2.619 6.73v120.018c0 5.501-4.46 9.961-9.961 9.961zm-374.056 0H10.963c-5.501 0-9.961-4.46-9.961-9.961V261.001c0-2.492.934-4.894 2.619-6.73l110.017-120.019c3.717-4.055 10.019-4.329 14.073-.612 4.055 3.717 4.33 10.018.612 14.073L20.924 264.875v106.182h106.057c5.501 0 9.961 4.46 9.961 9.961s-4.461 9.961-9.961 9.961z"/></svg>