<svg xmlns="http://www.w3.org/2000/svg" viewBox="0 0 512 512" style="enable-background:new 0 0 512 512" xml:space="preserve"><path style="fill:#cddcf9" d="M390.9 311.004h90.136v80.016H390.9c-16.632 0-29.883-13.521-29.883-29.883v-20.25c0-16.39 13.273-29.883 29.883-29.883z"/><path style="fill:#fff" d="M390.9 311.004h70.135v-70.005c0-16.575-13.437-30.002-30.012-30.002H90.979c-32.891 0-59.596-26.446-60.004-59.237l-.01 319.276c0 16.565 13.437 30.002 30.002 30.002h370.056c16.575 0 30.012-13.437 30.012-30.002V391.02H390.9c-16.631 0-29.883-13.521-29.883-29.883v-20.25c0-16.39 13.273-29.883 29.883-29.883z"/><path style="fill:#fff" d="M431.022 90.978v120.018h-155.25c45.225-21.341 69.15-71.597 57.225-120.018h98.025z"/><path style="fill:#cddcf9" d="M336.016 115.98c0 41.985-24.633 78.213-60.243 95.017h-89.548c-45.384-21.416-69.111-71.795-57.235-120.018 11.206-45.93 52.623-80.016 102.009-80.016 58.385 0 105.017 47.437 105.017 105.017z"/><circle style="fill:#cddcf9" cx="230.998" cy="271.001" r="20.001"/><path style="fill:#cddcf9" d="M251 431.022c0 11.057-8.955 20.011-20.001 20.011-11.047 0-20.001-8.955-20.001-20.011 0-11.047 8.955-20.001 20.001-20.001 11.046 0 20.001 8.951 20.001 20.001z"/><path style="fill:#fff" d="M186.224 210.997H90.978c-32.891 0-59.596-26.446-60.004-59.237v-1.474c.36-32.76 27.02-59.307 60.004-59.307h38.011c-1.972 8.009-3.008 16.376-3.008 25.002 0 41.984 24.633 78.212 60.243 95.016z"/><circle style="fill:#cddcf9" cx="166.432" cy="351.017" r="20.001"/><path style="fill:#487fe9" d="M461.031 320.969c-5.501 0-9.961-4.46-9.961-9.961v-70.011c0-11.052-8.992-20.043-20.044-20.043-5.501 0-9.961-4.46-9.961-9.961s4.46-9.961 9.961-9.961c22.037 0 39.966 17.929 39.966 39.965v70.011c0 5.501-4.46 9.961-9.961 9.961zm-30.005 190.029H60.97c-22.036 0-39.965-17.929-39.965-39.965l.006-320.743c0-5.501 4.46-9.961 9.961-9.961 5.502 0 9.961 4.46 9.961 9.961l-.006 320.743c0 11.052 8.991 20.043 20.043 20.043h370.056c11.052 0 20.044-8.991 20.044-20.043V391.02c0-5.501 4.46-9.961 9.961-9.961s9.961 4.46 9.961 9.961v80.013c0 22.036-17.928 39.965-39.966 39.965z"/><path style="fill:#487fe9" d="M481.034 400.981h-90.135c-21.969 0-39.843-17.874-39.843-39.843v-20.247c0-21.969 17.874-39.843 39.843-39.843h90.135c5.501 0 9.961 4.46 9.961 9.961v80.012c0 5.5-4.46 9.96-9.961 9.96zm-90.135-80.012c-10.985 0-19.922 8.937-19.922 19.922v20.247c0 10.985 8.937 19.922 19.922 19.922h80.174v-60.09h-80.174z"/><path style="fill:#487fe9" d="M401.02 360.977c-5.516 0-9.961-4.51-9.961-9.961 0-5.44 4.423-9.963 9.961-9.966 5.513-.003 9.961 4.507 9.961 9.966 0 5.563-4.551 9.961-9.961 9.961zm-38.284-20.005H231.037c-5.501 0-9.961-4.46-9.961-9.961v-40.006c0-5.501 4.46-9.961 9.961-9.961s9.961 4.46 9.961 9.961v30.045h121.738c5.501 0 9.961 4.46 9.961 9.961s-4.46 9.961-9.961 9.961zm-131.699 80.013c-5.501 0-9.961-4.46-9.961-9.961v-40.006c0-5.501 4.46-9.961 9.961-9.961h131.699c5.501 0 9.961 4.46 9.961 9.961s-4.46 9.961-9.961 9.961H240.997v30.045c0 5.501-4.46 9.961-9.96 9.961z"/><path style="fill:#487fe9" d="M230.997 300.966c-16.522 0-29.964-13.441-29.964-29.963s13.442-29.964 29.964-29.964 29.963 13.442 29.963 29.964-13.441 29.963-29.963 29.963zm0-40.006c-5.538 0-10.043 4.505-10.043 10.043 0 5.537 4.505 10.042 10.043 10.042 5.537 0 10.042-4.505 10.042-10.042-.001-5.538-4.505-10.043-10.042-10.043zm-64.563 120.019c-16.522 0-29.964-13.442-29.964-29.964s13.442-29.964 29.964-29.964 29.963 13.442 29.963 29.964c0 16.521-13.441 29.964-29.963 29.964zm0-40.007c-5.538 0-10.043 4.505-10.043 10.043s4.505 10.043 10.043 10.043c5.537 0 10.042-4.505 10.042-10.043s-4.505-10.043-10.042-10.043zm64.563 120.018c-16.522 0-29.964-13.442-29.964-29.964s13.442-29.963 29.964-29.963 29.963 13.441 29.963 29.963-13.441 29.964-29.963 29.964zm0-40.005c-5.538 0-10.043 4.505-10.043 10.042 0 5.538 4.505 10.043 10.043 10.043 5.537 0 10.042-4.505 10.042-10.043-.001-5.538-4.505-10.042-10.042-10.042z"/><path style="fill:#487fe9" d="M146.431 360.975H30.966c-5.501 0-9.961-4.46-9.961-9.961s4.46-9.961 9.961-9.961H146.43c5.501 0 9.961 4.46 9.961 9.961s-4.46 9.961-9.96 9.961zm84.566-200.03h-20.003c-5.501 0-9.961-4.46-9.961-9.961s4.46-9.961 9.961-9.961h20.003c5.537 0 10.042-4.505 10.042-10.042 0-5.538-4.505-10.043-10.042-10.043-16.522 0-29.964-13.442-29.964-29.964s13.442-29.963 29.964-29.963h20.002c5.501 0 9.961 4.46 9.961 9.961s-4.46 9.961-9.961 9.961h-20.002c-5.538 0-10.043 4.505-10.043 10.042 0 5.538 4.505 10.043 10.043 10.043 16.522 0 29.963 13.442 29.963 29.964s-13.441 29.963-29.963 29.963z"/><path style="fill:#487fe9" d="M230.997 80.933c-5.501 0-9.961-4.46-9.961-9.961V50.969c0-5.501 4.46-9.961 9.961-9.961s9.961 4.46 9.961 9.961v20.003c0 5.501-4.46 9.961-9.961 9.961zm0 100.015c-5.501 0-9.961-4.46-9.961-9.961v-20.003c0-5.501 4.46-9.961 9.961-9.961s9.961 4.46 9.961 9.961v20.003c0 5.501-4.46 9.961-9.961 9.961z"/><path style="fill:#487fe9" d="M431.026 220.954H90.975c-38.581 0-69.969-31.388-69.969-69.97 0-38.689 31.31-69.97 69.969-69.97h38.016c5.501 0 9.961 4.46 9.961 9.961s-4.46 9.961-9.961 9.961H90.975c-27.674 0-50.047 22.394-50.047 50.048 0 27.597 22.451 50.048 50.047 50.048h330.091V100.935h-88.063c-5.501 0-9.961-4.46-9.961-9.961s4.46-9.961 9.961-9.961h98.024c5.501 0 9.961 4.46 9.961 9.961v120.019c-.001 5.501-4.461 9.961-9.962 9.961z"/><path style="fill:#487fe9" d="M275.773 220.954H186.22a9.964 9.964 0 0 1-4.251-.952c-39.401-18.594-65.949-58.506-65.949-104.023 0-63.251 50.897-114.977 114.977-114.977 64.13 0 114.976 51.783 114.976 114.977 0 45.519-26.549 85.429-65.949 104.023a9.967 9.967 0 0 1-4.251.952zm-87.262-19.922h84.97c32.009-16.021 52.57-49.165 52.57-85.053 0-52.292-42.075-95.055-95.054-95.055-52.941 0-95.055 42.714-95.055 95.055-.001 35.888 20.56 69.032 52.569 85.053z"/></svg>