<svg viewBox="0 0 32 32" xmlns="http://www.w3.org/2000/svg"><g data-name="25. First Aid Kit"><path d="M30 4h-8V3a3 3 0 0 0-3-3h-6a3 3 0 0 0-3 3v1H2a2 2 0 0 0-2 2v6a2 2 0 0 0 1 1.72V29a3 3 0 0 0 3 3h24a3 3 0 0 0 3-3V13.72A2 2 0 0 0 32 12V6a2 2 0 0 0-2-2ZM12 3a1 1 0 0 1 1-1h6a1 1 0 0 1 1 1v1h-8ZM2 6h28v6H2Zm27 23a1 1 0 0 1-1 1H4a1 1 0 0 1-1-1V14h26Z" style="fill:#04009a"/><path d="M18 28h-4a1 1 0 0 1-1-1v-2h-2a1 1 0 0 1-1-1v-4a1 1 0 0 1 1-1h2v-2a1 1 0 0 1 1-1h4a1 1 0 0 1 1 1v2h2a1 1 0 0 1 1 1v4a1 1 0 0 1-1 1h-2v2a1 1 0 0 1-1 1Zm-3-2h2v-2a1 1 0 0 1 1-1h2v-2h-2a1 1 0 0 1-1-1v-2h-2v2a1 1 0 0 1-1 1h-2v2h2a1 1 0 0 1 1 1ZM7 16a1 1 0 0 1-1-1v-4a1 1 0 0 1 2 0v4a1 1 0 0 1-1 1Zm18 0a1 1 0 0 1-1-1v-4a1 1 0 0 1 2 0v4a1 1 0 0 1-1 1Z" style="fill:#77acf1"/></g></svg>