<svg viewBox="0 0 32 32" xmlns="http://www.w3.org/2000/svg"><defs><style>.cls-1{fill:#f79605}.cls-2{fill:#04009a}</style></defs><g data-name="15. Consultation" id="_15._Consultation"><rect class="cls-1" height="4" rx="1" width="8" x="12" y="24"/><path class="cls-2" d="M31 24V7a3 3 0 0 0-3-3h-1a1 1 0 0 0 0 2h1a1 1 0 0 1 1 1v17H3V7a1 1 0 0 1 1-1h1a1 1 0 0 0 0-2H4a3 3 0 0 0-3 3v17a1 1 0 0 0-1 1v2a5 5 0 0 0 5 5h22a5 5 0 0 0 5-5v-2a1 1 0 0 0-1-1Zm-1 3a3 3 0 0 1-3 3H5a3 3 0 0 1-3-3v-1h28Z"/><path class="cls-2" d="M26 10a3 3 0 1 0-4 2.82V14a4 4 0 0 1-8 0v-4a1 1 0 0 0-2 0v4a6 6 0 0 0 12 0v-1.18A3 3 0 0 0 26 10Zm-3 1a1 1 0 1 1 1-1 1 1 0 0 1-1 1Z"/><path class="cls-1" d="M13 10a5 5 0 0 1-5-5V2a2 2 0 0 1 2-2h1a1 1 0 0 1 0 2h-1v3a3 3 0 0 0 6 0V2h-1a1 1 0 0 1 0-2h1a2 2 0 0 1 2 2v3a5 5 0 0 1-5 5Z"/></g></svg>