<svg width="800" height="800" viewBox="0 0 32 32" xmlns="http://www.w3.org/2000/svg"><defs><style>.cls-1{fill:#f79605}</style></defs><g data-name="19. Send" id="_19._Send"><path class="cls-1" d="M21 16.6a3 3 0 0 1-1.66-.51l-4.89-3.26a1 1 0 0 1 1.1-1.66l4.9 3.26a1 1 0 0 0 1.1 0l4.9-3.26a1 1 0 0 1 1.1 1.66l-4.89 3.26a3 3 0 0 1-1.66.51Z"/><path class="cls-1" d="M29 25H13a3 3 0 0 1-3-3V10a3 3 0 0 1 3-3h16a3 3 0 0 1 3 3v12a3 3 0 0 1-3 3ZM13 9a1 1 0 0 0-1 1v12a1 1 0 0 0 1 1h16a1 1 0 0 0 1-1V10a1 1 0 0 0-1-1Z"/><path d="M7 19H5a1 1 0 0 1 0-2h2a1 1 0 0 1 0 2Zm0-4H3a1 1 0 0 1 0-2h4a1 1 0 0 1 0 2Zm0-4H1a1 1 0 0 1 0-2h6a1 1 0 0 1 0 2Z" style="fill:#060af5"/></g></svg>