<svg xmlns="http://www.w3.org/2000/svg" viewBox="0 0 512 512" style="enable-background:new 0 0 512 512" xml:space="preserve"><path style="fill:#fff" d="M451.034 40.965H60.966c-16.565 0-30.002 13.437-30.002 30.002V401.02h160.021v20.001h130.029V401.02h160.021V70.967c.001-16.565-13.436-30.002-30.001-30.002z"/><path style="fill:#cddcf9" d="M70.967 80.978h370.066v280.04H70.967z"/><path style="fill:#fff" d="M501.037 401.02v40.013c0 16.565-13.437 30.002-30.002 30.002H40.965c-16.565 0-30.002-13.437-30.002-30.002V401.02h180.023v20.001h130.029V401.02h180.022zM316.004 120.981h40.013v110.018h-40.013zm-80.005 20.001h40.003v90.016h-40.003zm-80.016 30.002h40.013v60.014h-40.013z"/><path style="fill:#487fe9" d="M471.033 480.994H40.967c-22.036 0-39.965-17.929-39.965-39.966v-40.006c0-5.501 4.46-9.961 9.961-9.961H190.99c5.501 0 9.961 4.46 9.961 9.961v10.043H311.05v-10.043c0-5.501 4.46-9.961 9.961-9.961h180.027c5.501 0 9.961 4.46 9.961 9.961v40.006c-.001 22.037-17.93 39.966-39.966 39.966zM20.924 410.983v30.045c0 11.052 8.991 20.044 20.043 20.044h430.066c11.052 0 20.043-8.992 20.043-20.044v-30.045H330.971v10.043c0 5.501-4.46 9.961-9.961 9.961H190.99c-5.501 0-9.961-4.46-9.961-9.961v-10.043H20.924z"/><path style="fill:#487fe9" d="M481.034 410.983c-5.501 0-9.961-4.46-9.961-9.961V70.972c0-11.052-8.991-20.044-20.043-20.044H60.97c-11.052 0-20.043 8.992-20.043 20.044v330.05c0 5.501-4.46 9.961-9.961 9.961s-9.961-4.46-9.961-9.961V70.972c0-22.037 17.929-39.966 39.965-39.966h390.06c22.036 0 39.965 17.929 39.965 39.966v330.05c0 5.501-4.46 9.961-9.961 9.961z"/><path style="fill:#487fe9" d="M441.028 370.977H70.972c-5.501 0-9.961-4.46-9.961-9.961V80.974c0-5.501 4.46-9.961 9.961-9.961h370.056c5.501 0 9.961 4.46 9.961 9.961v280.042c0 5.501-4.46 9.961-9.961 9.961zM80.933 351.055h350.134V90.935H80.933v260.12z"/><path style="fill:#487fe9" d="M195.991 240.958h-40.006c-5.501 0-9.961-4.46-9.961-9.961v-60.009c0-5.501 4.46-9.961 9.961-9.961h40.006c5.501 0 9.961 4.46 9.961 9.961v60.009c0 5.501-4.46 9.961-9.961 9.961zm-30.045-19.922h20.084v-40.088h-20.084v40.088zm110.057 19.922h-40.007c-5.501 0-9.961-4.46-9.961-9.961v-90.014c0-5.501 4.46-9.961 9.961-9.961h40.007c5.501 0 9.961 4.46 9.961 9.961v90.014c0 5.501-4.46 9.961-9.961 9.961zm-30.046-19.922h20.085v-70.093h-20.085v70.093zm110.058 19.922h-40.006c-5.501 0-9.961-4.46-9.961-9.961V120.98c0-5.501 4.46-9.961 9.961-9.961h40.006c5.501 0 9.961 4.46 9.961 9.961v110.017c0 5.501-4.46 9.961-9.961 9.961zm-30.045-19.922h20.084v-90.095H325.97v90.095zm-79.973 109.935a9.968 9.968 0 0 1-7.043-2.917l-22.961-22.962-12.96 12.96a9.963 9.963 0 0 1-7.044 2.917h-40.006c-5.501 0-9.961-4.46-9.961-9.961s4.46-9.961 9.961-9.961h35.88l17.086-17.086a9.963 9.963 0 0 1 14.088 0l21.608 21.61 28.197-40.281c1.916-2.738 5.061-4.311 8.42-4.246a9.964 9.964 0 0 1 8.187 4.679l22.078 35.324h44.487c5.501 0 9.961 4.46 9.961 9.961s-4.46 9.961-9.961 9.961h-50.008a9.957 9.957 0 0 1-8.446-4.682l-17.028-27.244-26.375 37.678a9.963 9.963 0 0 1-8.16 4.25z"/></svg>