<svg width="40" viewBox="0 0 24 24" fill="none" xmlns="http://www.w3.org/2000/svg"><g clip-path="url(#a)"><path fill-rule="evenodd" clip-rule="evenodd" d="M10.443 2.444C10.075 3.64 9.32 6.256 8.899 8.833c1.094.176 2.163.29 3.101.29.938 0 2.007-.114 3.1-.29-.42-2.577-1.175-5.193-1.543-6.389a9.755 9.755 0 0 0-3.114 0Zm4.89.465c.404 1.396.963 3.52 1.312 5.638a54.097 54.097 0 0 0 3.96-.986 9.715 9.715 0 0 0-5.271-4.652Zm5.88 6.11c-1.09.318-2.67.744-4.354 1.087.07.65.112 1.29.112 1.894 0 .882-.088 1.841-.227 2.806a56.042 56.042 0 0 0 4.812-1.248 9.754 9.754 0 0 0-.343-4.539Zm-.122 6.315a54.41 54.41 0 0 1-4.628 1.13 54.41 54.41 0 0 1-1.13 4.627 9.71 9.71 0 0 0 5.758-5.757Zm-7.533 6.222a56.35 56.35 0 0 0 1.248-4.812c-.965.139-1.924.227-2.806.227-.882 0-1.841-.088-2.806-.227.42 2.015.957 3.863 1.248 4.812a9.754 9.754 0 0 0 3.116 0Zm-4.892-.465a54.41 54.41 0 0 1-1.13-4.628 54.404 54.404 0 0 1-4.627-1.13 9.71 9.71 0 0 0 5.757 5.758Zm-6.222-7.534c.95.292 2.797.829 4.811 1.249-.138-.965-.226-1.924-.226-2.806 0-.604.041-1.244.112-1.894a55.79 55.79 0 0 1-4.354-1.087 9.755 9.755 0 0 0-.343 4.538Zm.951-5.996c1.032.297 2.454.676 3.96.986.35-2.119.908-4.242 1.311-5.638A9.715 9.715 0 0 0 3.395 7.56Zm5.294 2.828c-.058.565-.09 1.108-.09 1.611 0 .94.113 2.012.29 3.11 1.099.178 2.171.291 3.111.291.94 0 2.012-.113 3.11-.29.178-1.099.291-2.171.291-3.111 0-.503-.032-1.046-.09-1.611-1.133.181-2.276.303-3.311.303-1.035 0-2.178-.122-3.31-.303ZM9.673.99a11.294 11.294 0 0 1 4.654 0 11.27 11.27 0 0 1 8.093 6.76 11.298 11.298 0 0 1 .589 6.576 11.263 11.263 0 0 1-8.682 8.682 11.29 11.29 0 0 1-4.654 0A11.263 11.263 0 0 1 .99 14.327 11.294 11.294 0 0 1 .75 12c0-1.503.295-2.939.831-4.251A11.27 11.27 0 0 1 9.673.99Z" fill="#2904FA"/></g><defs><clipPath id="a"><path fill="#fff" d="M0 0h24v24H0z"/></clipPath></defs></svg>